<svg xmlns="http://www.w3.org/2000/svg" viewBox="0 0 400 300" width="406" height="306" class="illustration styles_illustrationTablet__1DWOa"><g id="_207_camera_flatline" data-name="#207_camera_flatline"><polygon points="259.95 199.83 178.37 244.94 257 258.5 329.7 214.98 259.95 199.83" fill="#fff"></polygon><path d="M257,259h-.09l-78.63-13.57a.51.51,0,0,1-.41-.41.5.5,0,0,1,.26-.52l81.58-45.11a.48.48,0,0,1,.35,0l69.74,15.15a.49.49,0,0,1,.39.41.5.5,0,0,1-.23.51l-72.71,43.52A.45.45,0,0,1,257,259Zm-77.15-14.31,77,13.29,71.46-42.78L260,200.36Z" fill="#231f20"></path><path d="M256.48,252.35h-.1l-26.62-5.42a.5.5,0,0,1-.39-.59.48.48,0,0,1,.59-.39l26.43,5.38,56.18-34.47-27.47-6.06a.5.5,0,0,1,.22-1L314,216.14a.51.51,0,0,1,.15.92l-57.41,35.22A.48.48,0,0,1,256.48,252.35Z" fill="#d1d3d4"></path><polygon points="225.2 200.78 148.37 242.46 227 256.02 294.95 215.93 225.2 200.78" fill="#fff"></polygon><path d="M227,256.52h-.08L148.29,243a.51.51,0,0,1-.41-.41.5.5,0,0,1,.26-.52L225,200.34a.53.53,0,0,1,.35,0l69.74,15.15a.49.49,0,0,1,.39.41.51.51,0,0,1-.24.51l-67.94,40.08A.48.48,0,0,1,227,256.52Zm-77.12-14.31,77,13.29,66.68-39.35-68.31-14.84Z" fill="#231f20"></path><path d="M225.39,248.11h-.08l-57.17-9.47a.49.49,0,0,1-.41-.4.5.5,0,0,1,.25-.53l62-34.67a.53.53,0,0,1,.39,0l46.58,13.43a.5.5,0,0,1,.11.91L225.65,248A.59.59,0,0,1,225.39,248.11Zm-55.68-10.23,55.58,9.2,50.23-30L230.25,204Z" fill="#d1d3d4"></path><path d="M114.22,84.89a41.31,41.31,0,0,1-2.63,11.31c-3.13,7.73-6.92,15.59-13.6,20.75-.14.12-.29.24-.43.34-7.57,5.63-15,10.4-20.46,18.33a40.67,40.67,0,0,0-3.44,6.11c-5.79,12.69-5.6,29.21,8.66,35.82,2.2,1,17.74.87,17.74-3.58.12,6.4.22,12.8.34,19.21-14.47,5.28-32.23.15-41.44-12-18.66-24.56,1.3-58.83,23.13-73.79,1.38-1,2.82-1.83,4.27-2.71,6.13-3.68,12.58-7,16.3-13,3.19-5.1,3.85-11.34,4.36-17.33,0,.8,5.31,3.41,6,4.14C115.53,81.17,114.7,81.18,114.22,84.89Z" fill="#fff"></path><path d="M88.46,195.73c-11.47,0-23-5.2-29.9-14.22-6.39-8.41-8.72-18.34-6.92-29.5,3.06-18.9,17.35-36.22,30.17-45,1.44-1,2.92-1.89,4.29-2.71l2-1.16C93.42,100,99,96.67,102.24,91.42c3-4.83,3.73-10.61,4.28-17.1a.54.54,0,0,1,.52-.46.5.5,0,0,1,.48.5A23.64,23.64,0,0,0,111,76.58a14.91,14.91,0,0,1,2.43,1.58c2.06,2.19,2,2.82,1.65,4.88-.09.51-.21,1.13-.31,1.91h0a41.47,41.47,0,0,1-2.67,11.44c-3.15,7.8-7,15.74-13.75,21-.14.12-.3.25-.45.36-1,.78-2.1,1.54-3.14,2.3-6.45,4.71-12.53,9.15-17.2,15.9a40.45,40.45,0,0,0-3.4,6c-5.67,12.43-5.45,28.73,8.42,35.16,1.57.72,12.14.87,15.9-1.54A2,2,0,0,0,99.56,174a.5.5,0,0,1,.5-.5h0a.49.49,0,0,1,.5.49l.34,19.21a.52.52,0,0,1-.33.48A35.45,35.45,0,0,1,88.46,195.73Zm19-120.19c-.56,6.17-1.37,11.68-4.34,16.41-3.39,5.46-9,8.8-14.52,12l-1.94,1.15c-1.36.82-2.82,1.71-4.25,2.69-12.64,8.66-26.73,25.73-29.74,44.34-1.76,10.88.51,20.55,6.73,28.74,9,11.83,26.35,16.92,40.53,11.92l-.29-16.9a4.49,4.49,0,0,1-.63.47C95,179,84.14,178.94,82.11,178c-14.49-6.72-14.77-23.62-8.91-36.49a40.63,40.63,0,0,1,3.49-6.18c4.76-6.9,10.91-11.39,17.43-16.14l3.14-2.31.41-.32c6.58-5.08,10.35-12.88,13.46-20.56a40.4,40.4,0,0,0,2.59-11.18h0c.11-.81.23-1.45.33-2,.35-1.82.4-2.1-1.4-4a19.4,19.4,0,0,0-2.2-1.4A33.89,33.89,0,0,1,107.42,75.54Z" fill="#231f20"></path><path d="M114.22,84.89a41.31,41.31,0,0,1-2.63,11.31c-3.13,7.73-6.92,15.59-13.6,20.75a21.19,21.19,0,0,0-7.31-9.83,19.52,19.52,0,0,0-4.32-2.41c6.13-3.68,12.58-7,16.3-13,3.19-5.1,3.85-11.34,4.36-17.33,0,.8,5.31,3.41,6,4.14C115.53,81.17,114.7,81.18,114.22,84.89Z" fill="#231f20"></path><path d="M98,117.45l-.14,0a.49.49,0,0,1-.32-.31,20.7,20.7,0,0,0-7.15-9.6,18.32,18.32,0,0,0-4.2-2.34.49.49,0,0,1-.31-.43.47.47,0,0,1,.24-.46l1.94-1.16C93.42,100,99,96.67,102.24,91.43c3-4.84,3.73-10.61,4.28-17.11a.49.49,0,0,1,.52-.46.5.5,0,0,1,.47.5A24.49,24.49,0,0,0,111,76.58a14.91,14.91,0,0,1,2.43,1.58c2.06,2.19,2,2.82,1.65,4.88-.1.51-.21,1.13-.32,1.91a41.11,41.11,0,0,1-2.66,11.44c-3.15,7.8-7,15.74-13.75,21A.51.51,0,0,1,98,117.45ZM87.46,104.64A19.83,19.83,0,0,1,91,106.71a21.84,21.84,0,0,1,7.25,9.42c6.23-5.07,9.89-12.65,12.91-20.12a40.77,40.77,0,0,0,2.6-11.18h0c.1-.81.22-1.45.32-2,.35-1.82.4-2.1-1.4-4a19.4,19.4,0,0,0-2.2-1.4,35.5,35.5,0,0,1-3-1.91c-.55,6.17-1.36,11.68-4.33,16.42-3.39,5.45-9,8.8-14.52,12Z" fill="#231f20"></path><path d="M331,211.48c-4.77.27-9.21-1.86-13.71-3.86-4.86-2.16-10.18-4.11-15.22-2.61-3.23,1-6.69,4-10.16,3.39-3.23-.55-7.33-3-9.89-5.23l1.17-6.51c.36-2.07.94-4.2,1.12-6.29.1-1.21-.35-2.48-.19-3.64.35-2.56,1.63-1.92,3.23-1.18A17.94,17.94,0,0,0,292,187a18.41,18.41,0,0,0,9.13-.73c2.12-.73,4.12-1.85,6.27-2.46a14,14,0,0,1,7.75,0c5.08,1.47,9.26,5.73,14.4,6.89,6.91,1.55,12.1-2.91,18.15-5.48a28.39,28.39,0,0,0,9.92-7c-.36.4-.32,2.73-.4,3.29a58.42,58.42,0,0,1-1.88,8.1c-2.23,7.16-6,14-12,18-3.22,2.15-6.51,2.79-10.13,3.56A14.43,14.43,0,0,1,331,211.48Z" fill="#231f20"></path><path d="M330.22,212c-4.3,0-8.38-1.82-12.33-3.58l-.77-.34c-4.57-2-9.87-4.08-14.87-2.59a21,21,0,0,0-3.37,1.49c-2.26,1.14-4.59,2.33-7,1.91-3.47-.59-7.69-3.19-10.13-5.35a.5.5,0,0,1-.17-.46l1.17-6.51c.12-.69.26-1.39.41-2.09a35.6,35.6,0,0,0,.7-4.15,7.91,7.91,0,0,0-.1-1.66,7.52,7.52,0,0,1-.08-2c.15-1.11.48-1.77,1.05-2.08.8-.44,1.77,0,2.8.48a18.16,18.16,0,0,0,13.44.7c.9-.31,1.8-.7,2.68-1.08a27.63,27.63,0,0,1,3.62-1.39,14.52,14.52,0,0,1,8,0,30.43,30.43,0,0,1,6.94,3.41,26.44,26.44,0,0,0,7.43,3.47c5,1.12,9-1,13.34-3.25,1.46-.76,3-1.54,4.51-2.2a28,28,0,0,0,9.74-6.84.48.48,0,0,1,.7,0,.49.49,0,0,1,0,.7,9.65,9.65,0,0,0-.22,2.1c0,.41,0,.76-.06.94a58,58,0,0,1-1.9,8.16c-1.81,5.85-5.41,13.77-12.22,18.3-3.18,2.12-6.44,2.81-9.9,3.55l-.41.08a13.66,13.66,0,0,1-2.21.3h0Zm.82-.52h0ZM305.89,204c4.05,0,8.06,1.6,11.64,3.19l.76.34c4.29,1.91,8.35,3.73,12.72,3.47h0a13,13,0,0,0,2.07-.27l.41-.09c3.5-.74,6.52-1.38,9.55-3.39,6.57-4.38,10-12.08,11.82-17.77a56.12,56.12,0,0,0,1.86-8c0-.15,0-.46.06-.82s0-.59,0-.84a29.42,29.42,0,0,1-8.92,5.87c-1.52.65-3,1.42-4.43,2.17-4.27,2.24-8.69,4.54-14,3.34a26.74,26.74,0,0,1-7.72-3.59,29.24,29.24,0,0,0-6.71-3.3,13.46,13.46,0,0,0-7.47,0,28.15,28.15,0,0,0-3.51,1.34c-.89.39-1.81.79-2.74,1.11a18.83,18.83,0,0,1-9.37.75,18.29,18.29,0,0,1-4.74-1.45c-.84-.38-1.62-.75-2-.55-.17.1-.41.41-.54,1.35a7,7,0,0,0,.09,1.74,9,9,0,0,1,.1,1.87,34.44,34.44,0,0,1-.72,4.28c-.14.69-.28,1.37-.4,2.05L282.6,203c2.37,2,6.25,4.39,9.44,4.93,2.09.36,4.28-.75,6.39-1.82a21.68,21.68,0,0,1,3.53-1.55A13.68,13.68,0,0,1,305.89,204Z" fill="#231f20"></path><path d="M103.43,78.28c-.56,26.36-3.45,129.35-3.45,129.35s113.84,12.82,143.71,15.73c27.21,2.65,45.76,2.31,53.89-1,6.73-2.73,11.61-9.73,11.61-15.66v-108c0-16.22-9.94-19-17.74-20.2s-62.95-9.67-62.95-9.67a95.17,95.17,0,0,1-9-9.32c-4.69-.39-35.94-1.61-39.84,0s-11.82,4.56-11.82,4.56l-44-1.41s-6.48-1.1-15.29,5.57A12.93,12.93,0,0,0,103.43,78.28Z" fill="#fff"></path><path d="M274.6,225.62c-8.54,0-18.92-.59-31-1.76C214.11,221,101.06,208.25,99.92,208.12a.49.49,0,0,1-.44-.51c0-1,2.9-103.29,3.45-129.35a13.35,13.35,0,0,1,5.25-10.42c8.88-6.72,15.4-5.71,15.68-5.66l43.86,1.4c.91-.34,8.09-3.08,11.72-4.53,4.09-1.63,35.94-.32,40.07,0a.52.52,0,0,1,.35.18,93.52,93.52,0,0,0,8.87,9.17c3.17.49,55.28,8.52,62.79,9.64,9,1.35,18.17,4.86,18.17,20.7v108c0,6.33-5.24,13.41-11.92,16.12C293.2,224.69,285.36,225.62,274.6,225.62ZM100.49,207.18c7.92.89,114.68,12.9,143.24,15.69,27.06,2.63,45.62,2.3,53.66-1,6.33-2.56,11.3-9.24,11.3-15.19v-108c0-15-8.32-18.36-17.32-19.71-7.71-1.15-62.39-9.58-62.94-9.67a.48.48,0,0,1-.26-.12,99,99,0,0,1-9-9.21c-5.69-.44-35.71-1.54-39.4-.07C176,61.53,168.06,64.52,168,64.55a.58.58,0,0,1-.19,0l-44-1.41c-.13,0-6.47-1-15,5.47a12.35,12.35,0,0,0-4.85,9.65C103.4,103.45,100.7,199.66,100.49,207.18Zm2.94-128.9h0Z" fill="#231f20"></path><path d="M237,211.81h-.09c-5.56-.06-76-6-79-6.24a.49.49,0,0,1-.45-.54.5.5,0,0,1,.54-.45c.73.06,73.37,6.17,78.9,6.23,3.47,0,9-2.75,11.86-6,1-1.17,2.2-3,1.93-4.83-.77-5.44,0-101,0-105a.52.52,0,0,1,.5-.5.5.5,0,0,1,.5.51c0,1-.77,99.53,0,104.9.26,1.77-.49,3.72-2.17,5.63C246.47,208.93,240.76,211.81,237,211.81Z" fill="#d1d3d4"></path><path d="M276,219.69c-25.33,0-109.11-8.75-110-8.84a.5.5,0,0,1-.45-.55.49.49,0,0,1,.55-.45c.93.1,92.92,9.7,113.1,8.78,21.41-1,29.49-12.09,29.57-12.2a.49.49,0,0,1,.69-.12.5.5,0,0,1,.13.69c-.34.48-8.4,11.62-30.34,12.63C278.32,219.67,277.23,219.69,276,219.69Z" fill="#231f20"></path><circle cx="175.1" cy="150.09" r="56.63" fill="#fff"></circle><path d="M175.1,207.22a57.14,57.14,0,1,1,57.14-57.14A57.2,57.2,0,0,1,175.1,207.22ZM175.1,94a56.14,56.14,0,1,0,56.14,56.13A56.19,56.19,0,0,0,175.1,94Z" fill="#231f20"></path><path d="M153,103.64a43.53,43.53,0,0,1,28.17-4.14c26.23,4.72,45.52,30.76,43.11,58.16-1.48,16.75-10.73,30.13-23.69,36.92l-53,27.8c13-6.8,22.21-20.18,23.69-36.92,2.41-27.4-16.88-53.44-43.11-58.17A43.66,43.66,0,0,0,100,131.43Z" fill="#fff"></path><path d="M147.57,222.88a.5.5,0,0,1-.24-.95c13.27-7,22-20.6,23.43-36.52,2.39-27.1-16.76-52.95-42.7-57.62a43,43,0,0,0-27.85,4.09h0a.5.5,0,0,1-.46-.89l53-27.79A44,44,0,0,1,181.27,99c26.43,4.77,45.95,31.1,43.51,58.7C223.35,174,214.39,187.91,200.83,195l-53,27.8A.46.46,0,0,1,147.57,222.88Zm-27.63-96.83a46.92,46.92,0,0,1,8.3.75c26.43,4.76,45.95,31.09,43.51,58.7a47.14,47.14,0,0,1-16.25,32.16l44.86-23.52c13.27-6.95,22-20.61,23.43-36.52,2.39-27.11-16.76-53-42.7-57.63a43,43,0,0,0-27.85,4.09L108.4,127.59A43.69,43.69,0,0,1,119.94,126.05ZM153,103.64h0Z" fill="#231f20"></path><path d="M183.31,204a.51.51,0,0,1-.45-.27.5.5,0,0,1,.22-.67c13.26-6.95,22-20.61,23.42-36.52,2.39-27.11-16.76-53-42.7-57.63A43.08,43.08,0,0,0,136,113a.5.5,0,1,1-.46-.88A44,44,0,0,1,164,107.94c26.43,4.76,46,31.09,43.51,58.7-1.43,16.25-10.39,30.2-24,37.31A.46.46,0,0,1,183.31,204Z" fill="#231f20"></path><path d="M128.15,127.29c-26.22-4.72-49.44,13.67-51.86,41.07s16.88,53.44,43.1,58.16,49.45-13.67,51.87-41.06S154.38,132,128.15,127.29Z" fill="#fff"></path><path d="M127.6,227.76a47,47,0,0,1-8.3-.75c-26.43-4.76-45.95-31.09-43.51-58.7,1.21-13.69,7.53-25.55,17.79-33.39a43.69,43.69,0,0,1,34.66-8.12c26.43,4.76,45.95,31.09,43.51,58.7-1.2,13.69-7.52,25.55-17.78,33.39A43.12,43.12,0,0,1,127.6,227.76ZM120,127.05a42.09,42.09,0,0,0-25.76,8.67C84.15,143.38,78,155,76.79,168.4c-2.39,27.1,16.76,53,42.69,57.63a42.63,42.63,0,0,0,33.88-7.94c10-7.66,16.21-19.27,17.4-32.68,2.39-27.1-16.76-52.95-42.7-57.62h0A45.82,45.82,0,0,0,120,127.05Z" fill="#231f20"></path><path d="M127,140.59c-19.2-3.46-36.2,10-38,30.06s12.36,39.12,31.55,42.58,36.2-10,38-30.06S146.18,144,127,140.59Z" fill="#68e1fd"></path><path d="M126.57,214.27a35.09,35.09,0,0,1-6.09-.55c-19.42-3.5-33.76-22.84-32-43.12a34.11,34.11,0,0,1,13.08-24.53,32.11,32.11,0,0,1,25.47-6h0c19.42,3.5,33.76,22.84,32,43.12A34.14,34.14,0,0,1,146,207.75,31.76,31.76,0,0,1,126.57,214.27ZM121,140.54a30.72,30.72,0,0,0-18.78,6.32,33.13,33.13,0,0,0-12.68,23.83c-1.75,19.78,12.22,38.64,31.14,42.05a31.13,31.13,0,0,0,24.7-5.78A33.12,33.12,0,0,0,158,183.12c1.75-19.78-12.23-38.64-31.15-42A33.26,33.26,0,0,0,121,140.54Z" fill="#231f20"></path><path d="M120.56,213.23a31.56,31.56,0,0,0,27.52-7.93,32,32,0,0,1-18.52,2C110.37,203.86,96.25,184.8,98,164.74a34.06,34.06,0,0,1,10.46-22.13c-10.58,4.57-18.3,14.88-19.46,28C87.24,190.7,101.37,209.77,120.56,213.23Z" fill="#231f20"></path><path d="M126.53,214.26a34.73,34.73,0,0,1-6.06-.54h0c-19.41-3.51-33.75-22.85-31.95-43.12,1.13-13,8.52-23.6,19.75-28.44a.5.5,0,0,1,.54.82,33.72,33.72,0,0,0-10.3,21.81c-1.74,19.77,12.23,38.63,31.14,42a31.56,31.56,0,0,0,18.23-2,.49.49,0,0,1,.61.18.5.5,0,0,1-.07.64A31.79,31.79,0,0,1,126.53,214.26Zm-5.88-1.52a31.19,31.19,0,0,0,24.94-6,32.8,32.8,0,0,1-16.11,1c-19.41-3.5-33.75-22.84-32-43.11a35.06,35.06,0,0,1,8.6-20.39c-9.45,5.13-15.6,14.8-16.61,26.38-1.75,19.77,12.22,38.63,31.14,42.05Z" fill="#231f20"></path><path d="M162.24,146.16a.5.5,0,0,1-.23-.95l30.55-15.52a.49.49,0,0,1,.67.22.49.49,0,0,1-.22.67L162.46,146.1A.46.46,0,0,1,162.24,146.16Z" fill="#d1d3d4"></path><path d="M151.06,135.56a.51.51,0,0,1-.45-.27.5.5,0,0,1,.22-.67l30-15.24a.49.49,0,0,1,.67.22.49.49,0,0,1-.22.67l-30,15.24A.48.48,0,0,1,151.06,135.56Z" fill="#d1d3d4"></path><path d="M138.35,129.27a.49.49,0,0,1-.44-.27.51.51,0,0,1,.21-.68l29.46-15a.49.49,0,0,1,.67.22.49.49,0,0,1-.22.67l-29.45,15A.49.49,0,0,1,138.35,129.27Z" fill="#d1d3d4"></path><path d="M128.06,124.08a.47.47,0,0,1-.44-.27.5.5,0,0,1,.21-.67l26.5-13.46a.49.49,0,0,1,.67.22.5.5,0,0,1-.21.67L128.29,124A.48.48,0,0,1,128.06,124.08Z" fill="#d1d3d4"></path><path d="M171.46,161.09a.49.49,0,0,1-.44-.27.49.49,0,0,1,.21-.67l29.4-14.94a.49.49,0,0,1,.67.22.5.5,0,0,1-.21.67L171.69,161A.64.64,0,0,1,171.46,161.09Z" fill="#d1d3d4"></path><path d="M173.24,174.51a.5.5,0,0,1-.22-.95l29.93-14a.5.5,0,0,1,.42.9l-29.92,14.05A.52.52,0,0,1,173.24,174.51Z" fill="#d1d3d4"></path><path d="M173.87,189.85a.5.5,0,0,1-.22-.95l28.65-14.56a.5.5,0,0,1,.67.22.49.49,0,0,1-.22.67L174.1,189.79A.46.46,0,0,1,173.87,189.85Z" fill="#d1d3d4"></path><path d="M170,204a.49.49,0,0,1-.44-.27.49.49,0,0,1,.21-.67l26.5-13.47a.5.5,0,0,1,.67.22.49.49,0,0,1-.21.67L170.19,204A.64.64,0,0,1,170,204Z" fill="#d1d3d4"></path><path d="M146.71,181.75a.54.54,0,0,1-.37-.16L118.1,150.42a.5.5,0,0,1,.74-.67l28.24,31.17a.49.49,0,0,1,0,.7A.5.5,0,0,1,146.71,181.75Z" fill="#fff"></path><path d="M144.33,199.62a.49.49,0,0,1-.38-.18l-18.88-22.82a.5.5,0,0,1,.07-.7.5.5,0,0,1,.7.07l18.87,22.82a.49.49,0,0,1-.06.7A.48.48,0,0,1,144.33,199.62Z" fill="#fff"></path><path d="M115.92,188.21a.48.48,0,0,1-.38-.17l-11.31-12.92a.51.51,0,0,1,0-.71.51.51,0,0,1,.71.05l11.31,12.93a.5.5,0,0,1,0,.7A.52.52,0,0,1,115.92,188.21Z" fill="#fff"></path><path d="M215.14,143.11a.49.49,0,0,1-.49-.41c-4.2-24.44-26.43-34.45-26.65-34.55a.5.5,0,0,1,.4-.92c.23.1,22.94,10.32,27.23,35.3a.5.5,0,0,1-.41.58Z" fill="#d1d3d4"></path><path d="M286.28,105.7c-9.75,0-15.65-5.4-20.54-9.88-2.46-2.25-4.78-4.37-7.19-5.4-8-3.44-48.48-8.3-48.89-8.35a.57.57,0,0,1-.26-.12c-1.72-1.49-10.3-9-10.56-11.45s14.2-8.78,20.43-11.39a.5.5,0,0,1,.66.27.49.49,0,0,1-.27.65c-9.41,3.94-19.66,9-19.83,10.38.17,1.53,6.24,7.32,10.11,10.68,3.14.38,41,5,49,8.41,2.57,1.1,4.95,3.28,7.47,5.59,5.94,5.43,12.68,11.6,25.61,9,13.5-2.69,16.23-8.65,16.26-8.71a.5.5,0,0,1,.65-.26.51.51,0,0,1,.27.65c-.12.26-2.89,6.49-17,9.3A29.83,29.83,0,0,1,286.28,105.7Z" fill="#231f20"></path><path d="M284.27,75.63s2.09,3.59,1.79,5.25-7.28,3.8-14.24,3.91c-6.73.1-10.73-2.05-11.51-3s1.45-6.13,1.45-6.13Z" fill="#231f20"></path><path d="M271.35,85.29c-6.68,0-10.57-2.15-11.43-3.22s.67-5,1.38-6.64a.51.51,0,0,1,.46-.3h22.51a.48.48,0,0,1,.43.25c.22.38,2.17,3.8,1.86,5.59-.41,2.27-8.39,4.22-14.73,4.32Zm-9.26-9.17c-1,2.48-1.69,4.93-1.39,5.33.63.79,4.44,3,11.11,2.84,7.48-.11,13.57-2.39,13.76-3.49s-1-3.56-1.59-4.68Z" fill="#231f20"></path><ellipse cx="273.01" cy="75.63" rx="11.26" ry="2.93" fill="#fff"></ellipse><path d="M273,79.06c-5.84,0-11.75-1.18-11.75-3.43S267.17,72.2,273,72.2s11.76,1.18,11.76,3.43S278.85,79.06,273,79.06Zm0-5.86c-6.56,0-10.75,1.44-10.75,2.43s4.19,2.43,10.75,2.43,10.76-1.44,10.76-2.43S279.58,73.2,273,73.2Z" fill="#231f20"></path><path d="M280,210.88a19.26,19.26,0,0,1-5.47-.64c-.68-.21-1.32-.36-1.94-.5-3.93-.92-5.82-1.8-5.82-11.8,0-2.93-.07-9.33-.16-17.44-.37-32.31-.65-64.09.18-66.84s5-2.16,11.38-1.35a90.06,90.06,0,0,0,14.06,1c12-.34,15.44-6.51,15.48-6.57a.5.5,0,0,1,.67-.21.51.51,0,0,1,.21.68c-.15.27-3.7,6.75-16.33,7.1a91.76,91.76,0,0,1-14.22-1c-5.43-.69-9.72-1.23-10.29.65-.86,2.83-.41,42.71-.14,66.54.09,8.11.16,14.51.16,17.45,0,9.65,1.69,10,5.05,10.82.6.14,1.29.3,2,.53,4.41,1.37,20.17.76,33-8.9a.5.5,0,0,1,.7.1.51.51,0,0,1-.1.7A49.54,49.54,0,0,1,280,210.88Z" fill="#d1d3d4"></path><path d="M211.33,80.71a.49.49,0,0,1-.41-.22.5.5,0,0,1,.14-.7l14.43-9.51a.49.49,0,0,1,.69.14.5.5,0,0,1-.14.69l-14.43,9.52A.57.57,0,0,1,211.33,80.71Z" fill="#d1d3d4"></path><path d="M154.81,77.74c-7.66,0-46.13-3.63-47.84-3.79a.49.49,0,0,1-.45-.54.5.5,0,0,1,.54-.45c.44,0,42.92,4,48.38,3.77,14.13-13,23.88-17.62,24-17.66a.5.5,0,1,1,.43.9c-.1,0-9.77,4.69-23.85,17.62a.54.54,0,0,1-.3.13Z" fill="#231f20"></path><path d="M159.4,62.67s1.3,1.74,1.11,2.33-8.09,7.4-9.71,8.15-10.71,0-12.37-1l.13-2.93Z" fill="#231f20"></path><path d="M147.81,74c-3.44,0-8.36-.59-9.64-1.36a.5.5,0,0,1-.23-.45l.13-2.93a.48.48,0,0,1,.34-.45l20.84-6.57a.51.51,0,0,1,.55.18c.54.73,1.42,2.05,1.19,2.78-.31,1-8.61,7.82-10,8.45A9.79,9.79,0,0,1,147.81,74Zm-8.87-2.09c2.07.86,10.23,1.48,11.65.84,1.58-.73,9-7.23,9.48-7.91a6.66,6.66,0,0,0-.86-1.54L139,69.6Z" fill="#231f20"></path><path d="M159.4,62.67c1.11.61-8,7.28-9.14,7.82-1.85.91-12.22.24-11.7-1.26s9.23-7.49,9.84-7.52S158.3,62.06,159.4,62.67Z" fill="#fff"></path><path d="M146.59,71.4c-3.2,0-7.22-.49-8.2-1.36a.86.86,0,0,1-.3-1c.6-1.73,9.42-7.81,10.28-7.86.42,0,10,.31,11.27,1h0a.67.67,0,0,1,.35.62c0,1.65-8.78,7.73-9.51,8.09A11.27,11.27,0,0,1,146.59,71.4Zm-7.52-2.09c.94.93,9.39,1.51,11,.73,1.22-.6,7.86-5.6,8.84-7a86.77,86.77,0,0,0-10.45-.8C147.43,62.53,139.78,68,139.07,69.31Z" fill="#231f20"></path><path d="M138.3,61.14s1.26,1.76,1.06,2.35-8.24,7.24-9.88,7.95-10.7-.2-12.34-1.24l.19-2.93Z" fill="#231f20"></path><path d="M127,72.19c-3.44,0-8.84-.72-10.17-1.57a.5.5,0,0,1-.23-.45l.19-2.93a.52.52,0,0,1,.36-.45l21-6.13a.49.49,0,0,1,.54.19c.53.73,1.38,2.08,1.14,2.8-.33.95-8.77,7.64-10.16,8.25A8.12,8.12,0,0,1,127,72.19Zm-9.38-2.28c2,.91,10.2,1.69,11.62,1.07,1.6-.69,9.2-7,9.64-7.71a6.47,6.47,0,0,0-.83-1.55L117.8,67.65Z" fill="#231f20"></path><path d="M138.3,61.14c1.09.63-8.18,7.11-9.3,7.63-1.86.87-12.22,0-11.67-1.5s9.37-7.29,10-7.32S137.21,60.5,138.3,61.14Z" fill="#fff"></path><path d="M125.91,69.61c-3.28,0-7.74-.59-8.77-1.53a.88.88,0,0,1-.28-1c.64-1.71,9.57-7.61,10.44-7.65.44,0,10,.52,11.25,1.26a.68.68,0,0,1,.34.62c-.08,1.65-8.94,7.55-9.68,7.89A9.47,9.47,0,0,1,125.91,69.61Zm-8.07-2.24c.92.94,9.35,1.7,10.95.95,1.23-.58,8-5.45,9-6.85a83,83,0,0,0-10.43-1C126.34,60.75,118.57,66.05,117.84,67.37Zm20.21-5.8h0Z" fill="#231f20"></path><path d="M139.2,99.26h-.1a.52.52,0,0,1-.39-.6s.9-4.36-1-7.14a5.38,5.38,0,0,0-3.7-2.23c-6.88-1.15-27.7-3.68-27.91-3.7a.5.5,0,0,1-.43-.56.49.49,0,0,1,.55-.43c.21,0,21.05,2.55,28,3.71A6.29,6.29,0,0,1,138.56,91c2.12,3.13,1.17,7.72,1.13,7.91A.5.5,0,0,1,139.2,99.26Z" fill="#d1d3d4"></path><path d="M196.89,83.52s-1.95-12.43-3.12-12.26-21.21-2.18-22.31-1.2-7.2,10.11-7.4,10.78S196.89,83.52,196.89,83.52Z" fill="#68e1fd"></path><path d="M196.89,84h0c-32.57-2-33-2.63-33.2-2.87a.56.56,0,0,1-.07-.45c.23-.81,6.4-10,7.54-11,.7-.61,4.41-.47,16.57.62,2.77.25,5.63.51,6,.46s1.66-.23,3.69,12.68a.53.53,0,0,1-.13.42A.51.51,0,0,1,196.89,84Zm-32.11-3.47c3.1.56,19.89,1.72,31.52,2.44-.82-5.09-2-10.45-2.61-11.23-.66,0-2.53-.15-6.07-.47-5.2-.46-14.88-1.33-15.86-.83C170.81,71.29,165.93,78.6,164.78,80.55Z" fill="#231f20"></path><path d="M192.79,81.63a.54.54,0,0,1-.25-.06l-14.08-7.83a.5.5,0,0,1-.2-.68.51.51,0,0,1,.68-.19L193,80.7a.49.49,0,0,1,.19.67A.49.49,0,0,1,192.79,81.63Z" fill="#fff"></path><path d="M177.51,79.73a.48.48,0,0,1-.3-.11l-6.05-4.68a.5.5,0,0,1-.09-.7.5.5,0,0,1,.7-.08l6,4.67a.5.5,0,0,1,.08.7A.47.47,0,0,1,177.51,79.73Z" fill="#fff"></path><path d="M239.61,127.23a5.95,5.95,0,1,1,5.94-5.94A6,6,0,0,1,239.61,127.23Zm0-10.89a4.95,4.95,0,1,0,4.94,5A5,5,0,0,0,239.61,116.34Z" fill="#d1d3d4"></path><path d="M238.51,125.86a4.58,4.58,0,1,1,4.57-4.57A4.58,4.58,0,0,1,238.51,125.86Zm0-8.15a3.58,3.58,0,1,0,3.57,3.58A3.58,3.58,0,0,0,238.51,117.71Z" fill="#d1d3d4"></path><path d="M115.88,111.14a5.94,5.94,0,1,1,6-5.94A5.95,5.95,0,0,1,115.88,111.14Zm0-10.88a4.94,4.94,0,1,0,5,4.94A5,5,0,0,0,115.88,100.26Z" fill="#d1d3d4"></path><path d="M114.78,109.77a4.57,4.57,0,1,1,4.57-4.57A4.58,4.58,0,0,1,114.78,109.77Zm0-8.14a3.57,3.57,0,1,0,3.57,3.57A3.57,3.57,0,0,0,114.78,101.63Z" fill="#d1d3d4"></path><path d="M242.06,200.33a2.95,2.95,0,1,1,2.94-2.94A2.95,2.95,0,0,1,242.06,200.33Zm0-4.89a1.95,1.95,0,1,0,1.94,1.95A2,2,0,0,0,242.06,195.44Z" fill="#d1d3d4"></path><path d="M183.57,91.56a3.81,3.81,0,0,1,2.68,1.23c.44.73-.18,1.58-1.16,2.06a10.51,10.51,0,0,1-3.48.81,15.4,15.4,0,0,1-3.59,0c-1.19-.17-2.44-.78-2.27-1.54C176.2,92.13,180.9,91.19,183.57,91.56Z" fill="#fff"></path><path d="M179.51,96.28a11.67,11.67,0,0,1-1.56-.1,3.86,3.86,0,0,1-2.49-1.2,1.17,1.17,0,0,1-.2-.93c.56-2.5,5.75-3.35,8.38-3h0c.89.12,2.46.48,3.05,1.47a1.5,1.5,0,0,1,.14,1.19,2.79,2.79,0,0,1-1.52,1.57,11,11,0,0,1-3.65.85A20.7,20.7,0,0,1,179.51,96.28Zm2.76-4.3c-2.62,0-5.74,1-6,2.28,0,0,0,.07,0,.15a3,3,0,0,0,1.82.78,14.78,14.78,0,0,0,3.46,0,10.41,10.41,0,0,0,3.31-.76,1.86,1.86,0,0,0,1-1,.49.49,0,0,0-.05-.41,3.41,3.41,0,0,0-2.31-1h0A8.25,8.25,0,0,0,182.27,92Z" fill="#231f20"></path><path d="M245,109.39h-.05c-5.85-.54-21.45-2.64-23.19-3.76-1.31-.84-5.08-5.72-4.76-8.51a2,2,0,0,1,1.4-1.77.64.64,0,0,1,.2,0c2.25.16,22.11,1.56,24.41,3.86l.59.57c1.88,1.8,2.11,2.3,1.9,9.16a.46.46,0,0,1-.17.36A.51.51,0,0,1,245,109.39ZM218.63,96.32a1,1,0,0,0-.65.9c-.25,2.2,3.06,6.76,4.31,7.56s14.88,2.84,22.22,3.56c.17-6.17-.06-6.39-1.61-7.88l-.6-.58C240.76,98.34,227.35,96.91,218.63,96.32Z" fill="#d1d3d4"></path><path d="M312.19,99.7S293.49,103,294,107.9s.18,47.39,8.72,61.44,37-11.53,47.18.53,1.94,32.52-18.83,41.42c0,0,17.61,0,26.06-10.52s15.41-31.72,7.66-46.71-37.16,6.33-46,0S312.19,99.7,312.19,99.7Z" fill="#fff"></path><path d="M331,211.79a.5.5,0,0,1-.2-1c11.45-4.9,20-14,22.29-23.76,1.5-6.35.21-12.34-3.64-16.88-4.77-5.64-14.06-2.56-23.05.43-9.64,3.19-19.61,6.5-24.18-1-7.2-11.84-8.16-43.1-8.58-56.46-.08-2.55-.13-4.39-.21-5.19-.5-5.23,16.68-8.4,18.64-8.74a.5.5,0,0,1,.42.11.54.54,0,0,1,.17.4c0,.48-2.09,47.84,6.39,53.94,3.49,2.5,10.71.33,18.35-2,10.81-3.25,23.07-6.94,27.77,2.14,8.1,15.66.18,37.46-7.72,47.25-8.5,10.55-25.72,10.71-26.45,10.71ZM341.76,166c3.37,0,6.31.94,8.49,3.51,4.05,4.78,5.42,11.09,3.85,17.75-2.25,9.5-9.81,18.08-20.45,23.34,5.18-.48,16.78-2.4,23.05-10.18,7.74-9.6,15.5-30.9,7.61-46.17-4.32-8.34-15.64-4.94-26.59-1.64-7.89,2.37-15.34,4.61-19.22,1.82-8.48-6.09-7.08-48.24-6.84-54.17-7.06,1.31-17.51,4.4-17.2,7.55.08.83.13,2.69.21,5.26.41,13.28,1.37,44.36,8.43,56,4.16,6.84,13.32,3.8,23,.59C331.53,167.87,337.06,166,341.76,166Z" fill="#231f20"></path><path d="M308.21,171a.46.46,0,0,1-.23,0,.51.51,0,0,1-.21-.68c3.1-6,9.75-12.77,10-13.05a.49.49,0,0,1,.7,0,.5.5,0,0,1,0,.71c-.07.07-6.83,7-9.87,12.82A.48.48,0,0,1,308.21,171Z" fill="#d1d3d4"></path><path d="M297,99.21c1.5-2.25,9.9-3.79,11.76-3.62s.93,7.71.93,7.71l-12.88,4.2S295.49,101.45,297,99.21Z" fill="#231f20"></path><path d="M296.79,108a.45.45,0,0,1-.25-.07.51.51,0,0,1-.24-.33c-.05-.25-1.32-6.27.27-8.67h0c1.71-2.57,10.43-4,12.21-3.84a1.25,1.25,0,0,1,.86.48c1.25,1.55.6,7.16.52,7.8a.5.5,0,0,1-.34.41L296.94,108Zm.61-8.52c-1,1.54-.58,5.44-.23,7.37l12-3.92c.25-2.27.36-5.85-.35-6.73-.09-.11-.15-.12-.17-.12-1.76-.17-10,1.4-11.29,3.4Z" fill="#231f20"></path></g></svg>